HIERARCHY
ROOT Hips
{
	OFFSET 38.623699 -2.995936 98.891197
	CHANNELS 6 Xposition Yposition Zposition Xrotation Yrotation Zrotation
	JOINT spine
	{
		OFFSET 0.000000 -0.477352 8.301041
		CHANNELS 3 Xrotation Yrotation Zrotation
		JOINT spine1
		{
			OFFSET 0.000000 -0.000002 10.456497
			CHANNELS 3 Xrotation Yrotation Zrotation
			JOINT spine2
			{
				OFFSET 0.000000 -0.000002 10.019203
				CHANNELS 3 Xrotation Yrotation Zrotation
				JOINT Neck
				{
					OFFSET 0.000000 -1.226414 25.723495
					CHANNELS 3 Xrotation Yrotation Zrotation
					JOINT Head
					{
						OFFSET 0.000000 -0.000001 7.771744
						CHANNELS 3 Xrotation Yrotation Zrotation
						End Site
						{
							OFFSET 0.000000 6.203937 18.811996
						}
					}
				}
				JOINT RightShoulder
				{
					OFFSET -4.218800 0.587437 10.820007
					CHANNELS 3 Xrotation Yrotation Zrotation
					JOINT RightArm
					{
						OFFSET 0.000000 -0.000002 14.191406
						CHANNELS 3 Xrotation Yrotation Zrotation
						JOINT RightArmRoll
						{
							OFFSET 0.000000 -0.000001 7.164078
							CHANNELS 3 Xrotation Yrotation Zrotation
							JOINT RightForeArm
							{
								OFFSET 0.000000 -0.000003 20.866501
								CHANNELS 3 Xrotation Yrotation Zrotation
								JOINT RightForeArmRoll
								{
									OFFSET 0.000000 -0.000001 8.039215
									CHANNELS 3 Xrotation Yrotation Zrotation
									JOINT RightHand
									{
										OFFSET 0.000000 -0.000003 16.132996
										CHANNELS 3 Xrotation Yrotation Zrotation
										End Site
										{
											OFFSET 0.000000 0.000000 0.100006
										}
									}
								}
							}
						}
					}
				}
				JOINT LeftShoulder
				{
					OFFSET 4.218800 0.587437 10.820007
					CHANNELS 3 Xrotation Yrotation Zrotation
					JOINT LeftArm
					{
						OFFSET 0.000000 -0.000002 14.191406
						CHANNELS 3 Xrotation Yrotation Zrotation
						JOINT LeftArmRoll
						{
							OFFSET 0.000000 -0.000001 7.164078
							CHANNELS 3 Xrotation Yrotation Zrotation
							JOINT LeftForeArm
							{
								OFFSET 0.000000 -0.000003 20.866501
								CHANNELS 3 Xrotation Yrotation Zrotation
								JOINT LeftForeArmRoll
								{
									OFFSET 0.000000 -0.000001 8.039215
									CHANNELS 3 Xrotation Yrotation Zrotation
									JOINT LeftHand
									{
										OFFSET 0.000000 -0.000003 16.132996
										CHANNELS 3 Xrotation Yrotation Zrotation
										End Site
										{
											OFFSET 0.000000 0.000000 0.100006
										}
									}
								}
							}
						}
					}
				}
			}
		}
	}
	JOINT RightUpLeg
	{
		OFFSET -7.357731 1.131820 -1.349213
		CHANNELS 3 Xrotation Yrotation Zrotation
		JOINT RightUpLegRoll
		{
			OFFSET 0.000000 -0.000003 18.916801
			CHANNELS 3 Xrotation Yrotation Zrotation
			JOINT RightLeg
			{
				OFFSET 0.000000 0.000004 -23.425598
				CHANNELS 3 Xrotation Yrotation Zrotation
				JOINT RightLegRoll
				{
					OFFSET 0.000000 -0.000004 23.502304
					CHANNELS 3 Xrotation Yrotation Zrotation
					JOINT RightFoot
					{
						OFFSET 0.000000 -0.000003 19.561707
						CHANNELS 3 Xrotation Yrotation Zrotation
						JOINT RightToeBase
						{
							OFFSET 0.000000 -0.000003 16.352600
							CHANNELS 3 Xrotation Yrotation Zrotation
							End Site
							{
								OFFSET 0.006931 0.912836 7.919434
							}
						}
					}
				}
			}
		}
	}
	JOINT LeftUpLeg
	{
		OFFSET 7.357731 1.131820 -1.349213
		CHANNELS 3 Xrotation Yrotation Zrotation
		JOINT LeftUpLegRoll
		{
			OFFSET 0.000000 -0.000003 18.916901
			CHANNELS 3 Xrotation Yrotation Zrotation
			JOINT LeftLeg
			{
				OFFSET 0.000000 -0.000004 23.425499
				CHANNELS 3 Xrotation Yrotation Zrotation
				JOINT LeftLegRoll
				{
					OFFSET 0.000000 -0.000004 23.719498
					CHANNELS 3 Xrotation Yrotation Zrotation
					JOINT LeftFoot
					{
						OFFSET 0.000000 -0.000003 19.344406
						CHANNELS 3 Xrotation Yrotation Zrotation
						JOINT LeftToeBase
						{
							OFFSET 0.000000 -0.000003 16.352600
							CHANNELS 3 Xrotation Yrotation Zrotation
							End Site
							{
								OFFSET -0.031063 0.912836 7.919434
							}
						}
					}
				}
			}
		}
	}
}
MOTION
Frames: 8
Frame Time: 0.041667
38.072800 -2.812287 98.834908 -0.996862 -0.687032 -1.381524 -1.727986 0.147106 0.101914 0.555273 0.293957 0.201678 2.200350 0.296365 0.198110 35.584118 2.522565 -2.033875 -20.252220 -1.158352 -1.697673 -12.886851 -30.482810 -13.834587 -131.410517 -155.653850 -89.090686 0.000001 -0.000001 -0.000000 132.864883 2.737786 9.873105 0.000002 -0.000000 -3.005262 -5.000174 -8.000100 0.000000 5.093022 69.613302 -4.345497 -56.081078 102.237741 36.846036 0.000001 0.000001 -0.000000 5.314700 9.535490 0.165022 -0.000001 -0.000013 3.000001 -5.000200 7.998871 -0.000143 -1.158454 -176.220779 0.701141 -179.999991 0.000005 -1.035999 174.992684 -4.002721 -0.597414 -0.000009 -0.000001 0.057216 68.803835 6.886777 2.166891 25.456964 -7.355621 0.000001 -0.448224 175.770123 0.725054 -0.000005 -0.000004 -1.129440 -8.780178 3.921370 0.967374 -0.000002 -0.000006 -0.116162 68.645921 -6.910860 -2.084579 25.456959 7.355613 0.000000 
38.071400 -2.809028 98.810402 -0.998318 -0.683451 -1.386720 -1.727354 0.146838 0.102069 0.556558 0.293100 0.202048 2.201639 0.295511 0.198485 35.571758 2.590444 -2.047674 -20.242036 -1.226060 -1.706180 -12.877851 -30.474118 -13.821292 -131.394507 -155.601012 -89.191923 0.000000 -0.000000 0.000003 133.079884 2.730328 9.818122 0.000003 0.000002 -3.005261 -5.000173 -8.000097 -0.000001 5.063987 69.622966 -4.312096 -56.058211 102.240596 36.826980 0.000000 -0.000001 -0.000000 5.323159 9.537560 0.164449 -0.000004 -0.000013 3.000000 -5.000201 7.998872 -0.000145 -1.157029 -176.229768 0.691140 -179.999991 0.000005 -1.035998 174.993968 -3.994754 -0.597624 -0.000009 -0.000001 0.057212 68.804382 6.886809 2.166963 25.456959 -7.355619 0.000000 -0.444322 175.765124 0.725527 -0.000005 -0.000004 -1.129460 -8.776531 3.917642 0.967505 -0.000002 -0.000006 -0.116213 68.649282 -6.910830 -2.084664 25.456960 7.355614 0.000000 
38.068600 -2.812459 98.818901 -1.000201 -0.679760 -1.391527 -1.726633 0.146518 0.102240 0.558032 0.292223 0.202457 2.203109 0.294637 0.198903 35.559604 2.653575 -2.061221 -20.232352 -1.289823 -1.714858 -12.868806 -30.468507 -13.808156 -131.379686 -155.551042 -89.290312 -0.000001 0.000002 0.000002 133.290363 2.723131 9.767174 0.000002 -0.000000 -3.005258 -5.000173 -8.000097 -0.000001 5.036530 69.631982 -4.280513 -56.035227 102.243588 36.807715 -0.000000 0.000001 0.000001 5.331381 9.539399 0.163917 -0.000001 -0.000013 2.999999 -5.000200 7.998871 -0.000144 -1.155121 -176.238770 0.682202 -179.999991 0.000005 -1.035998 174.995252 -3.987794 -0.596926 -0.000009 -0.000000 0.057209 68.804921 6.886842 2.167035 25.456957 -7.355619 0.000001 -0.440763 175.761135 0.725117 -0.000005 -0.000004 -1.129490 -8.774384 3.914610 0.967681 -0.000002 -0.000006 -0.116264 68.652458 -6.910855 -2.084571 25.456962 7.355613 -0.000000 
38.066502 -2.811589 98.817291 -1.002540 -0.675972 -1.395909 -1.725817 0.146146 0.102429 0.559699 0.291341 0.202906 2.204779 0.293760 0.199361 35.547815 2.711269 -2.074515 -20.223251 -1.349019 -1.723776 -12.859744 -30.466253 -13.795186 -131.365903 -155.504160 -89.385531 0.000001 -0.000001 -0.000003 133.498124 2.715657 9.719439 0.000002 -0.000001 -3.005256 -5.000174 -8.000096 0.000000 5.010961 69.640540 -4.251079 -56.014586 102.246607 36.790384 0.000000 -0.000001 -0.000000 5.339376 9.540978 0.163405 -0.000004 -0.000013 3.000001 -5.000203 7.998872 -0.000144 -1.152697 -176.247759 0.674519 -179.999991 0.000005 -1.035998 174.996536 -3.981814 -0.597312 -0.000009 -0.000000 0.057206 68.805454 6.886876 2.167208 25.456959 -7.355619 0.000001 -0.437681 175.755124 0.723635 -0.000005 -0.000004 -1.129520 -8.774079 3.912459 0.967915 -0.000003 -0.000006 -0.116317 68.655504 -6.910840 -2.084577 25.456960 7.355613 0.000000 
38.064800 -2.803108 98.817894 -1.005398 -0.671971 -1.399963 -1.724884 0.145692 0.102629 0.561613 0.290396 0.203410 2.206688 0.292822 0.199879 35.536006 2.764500 -2.087739 -20.214744 -1.404857 -1.733052 -12.850410 -30.468070 -13.782146 -131.353280 -155.459176 -89.482472 0.000000 0.000002 0.000002 133.705543 2.707279 9.671106 0.000001 0.000000 -3.005260 -5.000174 -8.000095 0.000001 4.986647 69.648252 -4.223138 -55.993109 102.249872 36.772103 0.000000 -0.000001 -0.000001 5.347338 9.542271 0.162934 -0.000004 -0.000013 3.000001 -5.000200 7.998871 -0.000144 -1.149690 -176.255750 0.667850 -179.999991 0.000005 -1.035998 174.997766 -3.976841 -0.596791 -0.000009 -0.000001 0.057203 68.806096 6.886916 2.167177 25.456959 -7.355619 0.000001 -0.434738 175.750125 0.721312 -0.000005 -0.000005 -1.129570 -8.775074 3.910896 0.968188 -0.000003 -0.000006 -0.116370 68.658359 -6.910883 -2.084506 25.456960 7.355613 -0.000000 
38.062698 -2.805000 98.813293 -1.008800 -0.667659 -1.403786 -1.723835 0.145132 0.102834 0.563808 0.289324 0.203984 2.208888 0.291757 0.200469 35.524032 2.814725 -2.101007 -20.206538 -1.458944 -1.742702 -12.840845 -30.474258 -13.769020 -131.341505 -155.414944 -89.584338 -0.000001 -0.000003 -0.000003 133.912429 2.698709 9.618878 0.000003 0.000000 -3.005259 -5.000175 -8.000100 -0.000003 4.962914 69.654952 -4.195977 -55.968817 102.253676 36.750909 0.000001 -0.000001 -0.000000 5.355446 9.543244 0.162507 -0.000001 -0.000012 3.000001 -5.000205 7.998872 -0.000144 -1.146100 -176.263755 0.661819 -179.999991 0.000005 -1.035998 174.998927 -3.972875 -0.596362 -0.000009 -0.000000 0.057200 68.806745 6.886956 2.167243 25.456960 -7.355619 0.000001 -0.431545 175.744128 0.718590 -0.000005 -0.000005 -1.129620 -8.776625 3.909448 0.968469 -0.000002 -0.000006 -0.116425 68.661303 -6.910860 -2.084417 25.456955 7.355613 0.000000 
38.057201 -2.808218 98.812889 -1.012688 -0.663074 -1.407371 -1.722657 0.144481 0.103044 0.566258 0.288136 0.204620 2.211328 0.290578 0.201123 35.511776 2.862058 -2.114242 -20.198534 -1.511242 -1.752632 -12.831200 -30.484220 -13.755932 -131.330413 -155.371682 -89.689263 0.000000 -0.000002 -0.000001 134.116693 2.690523 9.564602 0.000003 0.000000 -3.005263 -5.000174 -8.000096 0.000003 4.939814 69.660717 -4.169654 -55.942169 102.257952 36.727208 0.000001 0.000001 0.000001 5.363621 9.543915 0.162121 -0.000002 -0.000013 3.000001 -5.000203 7.998871 -0.000144 -1.141973 -176.271733 0.656375 -179.999991 0.000005 -1.035998 175.000061 -3.969887 -0.597021 -0.000009 -0.000000 0.057197 68.807278 6.886989 2.167317 25.456959 -7.355620 0.000001 -0.428138 175.738117 0.715514 -0.000005 -0.000005 -1.129680 -8.778695 3.908100 0.968758 -0.000002 -0.000006 -0.116482 68.664056 -6.910894 -2.084252 25.456960 7.355614 0.000000 
38.057800 -2.806729 98.815201 -1.017037 -0.658252 -1.410706 -1.721375 0.143748 0.103261 0.568936 0.286846 0.205314 2.214008 0.289298 0.201838 35.499352 2.906615 -2.127383 -20.190627 -1.561724 -1.762753 -12.821305 -30.497549 -13.742840 -131.320113 -155.329785 -89.795657 -0.000001 -0.000002 -0.000001 134.316462 2.681962 9.508633 0.000002 -0.000000 -3.005259 -5.000174 -8.000098 -0.000003 4.917363 69.665457 -4.144176 -55.912994 102.262849 36.700983 0.000002 0.000000 -0.000001 5.371793 9.544307 0.161756 -0.000002 -0.000012 3.000000 -5.000200 7.998871 -0.000144 -1.137353 -176.278740 0.651444 -179.999991 0.000005 -1.035998 175.001112 -3.966900 -0.596687 -0.000009 -0.000001 0.057194 68.807927 6.887027 2.167383 25.456962 -7.355618 -0.000000 -0.424550 175.732107 0.712137 -0.000005 -0.000004 -1.129740 -8.781267 3.906848 0.969051 -0.000003 -0.000006 -0.116541 68.666897 -6.910864 -2.084269 25.456955 7.355613 -0.000000 
